<?xml version="1.0" encoding="UTF-8" standalone="yes"?>
<svg version="1.2" width="300px" height="300px" fill-rule="evenodd" baseProfile="tiny-ps" xmlns="http://www.w3.org/2000/svg">
  <title>Deluxe Holiday Homes</title>
  <g>
    <path fill="#243275" d="M 48.5,93.5 C 58.1724,93.3335 67.8391,93.5002 77.5,94C 83.2092,100.04 88.5425,106.374 93.5,113C 85.8406,113.5 78.1739,113.666 70.5,113.5C 70.5,137.5 70.5,161.5 70.5,185.5C 78.5069,185.666 86.5069,185.5 94.5,185C 106.316,182.516 114.483,175.683 119,164.5C 120,160.167 121,155.833 122,151.5C 128.298,159.131 133.798,167.298 138.5,176C 131.324,190.832 119.658,200.166 103.5,204C 85.2039,205.402 66.8706,205.902 48.5,205.5C 48.5,168.167 48.5,130.833 48.5,93.5 Z"/>
  </g>
  <g>
    <path fill="#00aff1" d="M 84.5,94.5 C 93.5685,93.1717 102.735,93.1717 112,94.5C 139.705,129.381 164.872,166.048 187.5,204.5C 179.855,205.665 172.188,205.831 164.5,205C 151.033,184.856 137.533,164.69 124,144.5C 111.35,127.359 98.1838,110.692 84.5,94.5 Z"/>
  </g>
  <g>
    <path fill="#243275" d="M 156.5,93.5 C 164.167,93.5 171.833,93.5 179.5,93.5C 179.5,108.5 179.5,123.5 179.5,138.5C 195.833,138.5 212.167,138.5 228.5,138.5C 228.5,123.5 228.5,108.5 228.5,93.5C 235.833,93.5 243.167,93.5 250.5,93.5C 250.5,130.833 250.5,168.167 250.5,205.5C 243.167,205.5 235.833,205.5 228.5,205.5C 228.5,189.833 228.5,174.167 228.5,158.5C 212.167,158.5 195.833,158.5 179.5,158.5C 179.83,165.532 179.497,172.532 178.5,179.5C 171.529,168.697 164.363,158.03 157,147.5C 156.5,129.503 156.333,111.503 156.5,93.5 Z"/>
  </g>
</svg>
